solid pmma_waveguide
 facet normal 0 0 -1
  outer loop
   vertex -15.00000 -6.00000 0.00000
   vertex -15.00000 6.00000 0.00000
   vertex 15.00000 6.00000 0.00000
  endloop
 endfacet
 facet normal 0 0 -1
  outer loop
   vertex -15.00000 -6.00000 0.00000
   vertex 15.00000 6.00000 0.00000
   vertex 15.00000 -6.00000 0.00000
  endloop
 endfacet
 facet normal 0 0 1
  outer loop
   vertex -15.00000 -6.00000 1.13390
   vertex 15.00000 -6.00000 1.13390
   vertex 15.00000 6.00000 1.13390
  endloop
 endfacet
 facet normal 0 0 1
  outer loop
   vertex -15.00000 -6.00000 1.13390
   vertex 15.00000 6.00000 1.13390
   vertex -15.00000 6.00000 1.13390
  endloop
 endfacet
 facet normal 0 -1 0
  outer loop
   vertex -15.00000 -6.00000 0.00000
   vertex 15.00000 -6.00000 0.00000
   vertex 15.00000 -6.00000 1.13390
  endloop
 endfacet
 facet normal 0 -1 0
  outer loop
   vertex -15.00000 -6.00000 0.00000
   vertex 15.00000 -6.00000 1.13390
   vertex -15.00000 -6.00000 1.13390
  endloop
 endfacet
 facet normal 0 1 0
  outer loop
   vertex 15.00000 6.00000 0.00000
   vertex -15.00000 6.00000 0.00000
   vertex -15.00000 6.00000 1.13390
  endloop
 endfacet
 facet normal 0 1 0
  outer loop
   vertex 15.00000 6.00000 0.00000
   vertex -15.00000 6.00000 1.13390
   vertex 15.00000 6.00000 1.13390
  endloop
 endfacet
 facet normal 1 0 0
  outer loop
   vertex 15.00000 -6.00000 0.00000
   vertex 15.00000 6.00000 0.00000
   vertex 15.00000 6.00000 1.13390
  endloop
 endfacet
 facet normal 1 0 0
  outer loop
   vertex 15.00000 -6.00000 0.00000
   vertex 15.00000 6.00000 1.13390
   vertex 15.00000 -6.00000 1.13390
  endloop
 endfacet
 facet normal -1 0 0
  outer loop
   vertex -15.00000 -6.00000 0.00000
   vertex -15.00000 -6.00000 1.13390
   vertex -15.00000 6.00000 1.13390
  endloop
 endfacet
 facet normal -1 0 0
  outer loop
   vertex -15.00000 -6.00000 0.00000
   vertex -15.00000 6.00000 1.13390
   vertex -15.00000 6.00000 0.00000
  endloop
 endfacet
 facet normal 0 0 -1
  outer loop
   vertex -13.78130 -4.00000 1.13390
   vertex -13.78130 4.00000 1.13390
   vertex -13.34274 4.00000 1.13390
  endloop
 endfacet
 facet normal 0 0 -1
  outer loop
   vertex -13.78130 -4.00000 1.13390
   vertex -13.34274 4.00000 1.13390
   vertex -13.34274 -4.00000 1.13390
  endloop
 endfacet
 facet normal 0 0 1
  outer loop
   vertex -13.78130 -4.00000 1.93390
   vertex -13.34274 -4.00000 1.93390
   vertex -13.34274 4.00000 1.93390
  endloop
 endfacet
 facet normal 0 0 1
  outer loop
   vertex -13.78130 -4.00000 1.93390
   vertex -13.34274 4.00000 1.93390
   vertex -13.78130 4.00000 1.93390
  endloop
 endfacet
 facet normal 0 -1 0
  outer loop
   vertex -13.78130 -4.00000 1.13390
   vertex -13.34274 -4.00000 1.13390
   vertex -13.34274 -4.00000 1.93390
  endloop
 endfacet
 facet normal 0 -1 0
  outer loop
   vertex -13.78130 -4.00000 1.13390
   vertex -13.34274 -4.00000 1.93390
   vertex -13.78130 -4.00000 1.93390
  endloop
 endfacet
 facet normal 0 1 0
  outer loop
   vertex -13.34274 4.00000 1.13390
   vertex -13.78130 4.00000 1.13390
   vertex -13.78130 4.00000 1.93390
  endloop
 endfacet
 facet normal 0 1 0
  outer loop
   vertex -13.34274 4.00000 1.13390
   vertex -13.78130 4.00000 1.93390
   vertex -13.34274 4.00000 1.93390
  endloop
 endfacet
 facet normal 1 0 0
  outer loop
   vertex -13.34274 -4.00000 1.13390
   vertex -13.34274 4.00000 1.13390
   vertex -13.34274 4.00000 1.93390
  endloop
 endfacet
 facet normal 1 0 0
  outer loop
   vertex -13.34274 -4.00000 1.13390
   vertex -13.34274 4.00000 1.93390
   vertex -13.34274 -4.00000 1.93390
  endloop
 endfacet
 facet normal -1 0 0
  outer loop
   vertex -13.78130 -4.00000 1.13390
   vertex -13.78130 -4.00000 1.93390
   vertex -13.78130 4.00000 1.93390
  endloop
 endfacet
 facet normal -1 0 0
  outer loop
   vertex -13.78130 -4.00000 1.13390
   vertex -13.78130 4.00000 1.93390
   vertex -13.78130 4.00000 1.13390
  endloop
 endfacet
 facet normal 0 0 -1
  outer loop
   vertex -12.90534 -4.00000 1.13390
   vertex -12.90534 4.00000 1.13390
   vertex -12.46678 4.00000 1.13390
  endloop
 endfacet
 facet normal 0 0 -1
  outer loop
   vertex -12.90534 -4.00000 1.13390
   vertex -12.46678 4.00000 1.13390
   vertex -12.46678 -4.00000 1.13390
  endloop
 endfacet
 facet normal 0 0 1
  outer loop
   vertex -12.90534 -4.00000 1.93390
   vertex -12.46678 -4.00000 1.93390
   vertex -12.46678 4.00000 1.93390
  endloop
 endfacet
 facet normal 0 0 1
  outer loop
   vertex -12.90534 -4.00000 1.93390
   vertex -12.46678 4.00000 1.93390
   vertex -12.90534 4.00000 1.93390
  endloop
 endfacet
 facet normal 0 -1 0
  outer loop
   vertex -12.90534 -4.00000 1.13390
   vertex -12.46678 -4.00000 1.13390
   vertex -12.46678 -4.00000 1.93390
  endloop
 endfacet
 facet normal 0 -1 0
  outer loop
   vertex -12.90534 -4.00000 1.13390
   vertex -12.46678 -4.00000 1.93390
   vertex -12.90534 -4.00000 1.93390
  endloop
 endfacet
 facet normal 0 1 0
  outer loop
   vertex -12.46678 4.00000 1.13390
   vertex -12.90534 4.00000 1.13390
   vertex -12.90534 4.00000 1.93390
  endloop
 endfacet
 facet normal 0 1 0
  outer loop
   vertex -12.46678 4.00000 1.13390
   vertex -12.90534 4.00000 1.93390
   vertex -12.46678 4.00000 1.93390
  endloop
 endfacet
 facet normal 1 0 0
  outer loop
   vertex -12.46678 -4.00000 1.13390
   vertex -12.46678 4.00000 1.13390
   vertex -12.46678 4.00000 1.93390
  endloop
 endfacet
 facet normal 1 0 0
  outer loop
   vertex -12.46678 -4.00000 1.13390
   vertex -12.46678 4.00000 1.93390
   vertex -12.46678 -4.00000 1.93390
  endloop
 endfacet
 facet normal -1 0 0
  outer loop
   vertex -12.90534 -4.00000 1.13390
   vertex -12.90534 -4.00000 1.93390
   vertex -12.90534 4.00000 1.93390
  endloop
 endfacet
 facet normal -1 0 0
  outer loop
   vertex -12.90534 -4.00000 1.13390
   vertex -12.90534 4.00000 1.93390
   vertex -12.90534 4.00000 1.13390
  endloop
 endfacet
 facet normal 0 0 -1
  outer loop
   vertex -12.02938 -4.00000 1.13390
   vertex -12.02938 4.00000 1.13390
   vertex -11.59082 4.00000 1.13390
  endloop
 endfacet
 facet normal 0 0 -1
  outer loop
   vertex -12.02938 -4.00000 1.13390
   vertex -11.59082 4.00000 1.13390
   vertex -11.59082 -4.00000 1.13390
  endloop
 endfacet
 facet normal 0 0 1
  outer loop
   vertex -12.02938 -4.00000 1.93390
   vertex -11.59082 -4.00000 1.93390
   vertex -11.59082 4.00000 1.93390
  endloop
 endfacet
 facet normal 0 0 1
  outer loop
   vertex -12.02938 -4.00000 1.93390
   vertex -11.59082 4.00000 1.93390
   vertex -12.02938 4.00000 1.93390
  endloop
 endfacet
 facet normal 0 -1 0
  outer loop
   vertex -12.02938 -4.00000 1.13390
   vertex -11.59082 -4.00000 1.13390
   vertex -11.59082 -4.00000 1.93390
  endloop
 endfacet
 facet normal 0 -1 0
  outer loop
   vertex -12.02938 -4.00000 1.13390
   vertex -11.59082 -4.00000 1.93390
   vertex -12.02938 -4.00000 1.93390
  endloop
 endfacet
 facet normal 0 1 0
  outer loop
   vertex -11.59082 4.00000 1.13390
   vertex -12.02938 4.00000 1.13390
   vertex -12.02938 4.00000 1.93390
  endloop
 endfacet
 facet normal 0 1 0
  outer loop
   vertex -11.59082 4.00000 1.13390
   vertex -12.02938 4.00000 1.93390
   vertex -11.59082 4.00000 1.93390
  endloop
 endfacet
 facet normal 1 0 0
  outer loop
   vertex -11.59082 -4.00000 1.13390
   vertex -11.59082 4.00000 1.13390
   vertex -11.59082 4.00000 1.93390
  endloop
 endfacet
 facet normal 1 0 0
  outer loop
   vertex -11.59082 -4.00000 1.13390
   vertex -11.59082 4.00000 1.93390
   vertex -11.59082 -4.00000 1.93390
  endloop
 endfacet
 facet normal -1 0 0
  outer loop
   vertex -12.02938 -4.00000 1.13390
   vertex -12.02938 -4.00000 1.93390
   vertex -12.02938 4.00000 1.93390
  endloop
 endfacet
 facet normal -1 0 0
  outer loop
   vertex -12.02938 -4.00000 1.13390
   vertex -12.02938 4.00000 1.93390
   vertex -12.02938 4.00000 1.13390
  endloop
 endfacet
 facet normal 0 0 -1
  outer loop
   vertex -11.15342 -4.00000 1.13390
   vertex -11.15342 4.00000 1.13390
   vertex -10.71486 4.00000 1.13390
  endloop
 endfacet
 facet normal 0 0 -1
  outer loop
   vertex -11.15342 -4.00000 1.13390
   vertex -10.71486 4.00000 1.13390
   vertex -10.71486 -4.00000 1.13390
  endloop
 endfacet
 facet normal 0 0 1
  outer loop
   vertex -11.15342 -4.00000 1.93390
   vertex -10.71486 -4.00000 1.93390
   vertex -10.71486 4.00000 1.93390
  endloop
 endfacet
 facet normal 0 0 1
  outer loop
   vertex -11.15342 -4.00000 1.93390
   vertex -10.71486 4.00000 1.93390
   vertex -11.15342 4.00000 1.93390
  endloop
 endfacet
 facet normal 0 -1 0
  outer loop
   vertex -11.15342 -4.00000 1.13390
   vertex -10.71486 -4.00000 1.13390
   vertex -10.71486 -4.00000 1.93390
  endloop
 endfacet
 facet normal 0 -1 0
  outer loop
   vertex -11.15342 -4.00000 1.13390
   vertex -10.71486 -4.00000 1.93390
   vertex -11.15342 -4.00000 1.93390
  endloop
 endfacet
 facet normal 0 1 0
  outer loop
   vertex -10.71486 4.00000 1.13390
   vertex -11.15342 4.00000 1.13390
   vertex -11.15342 4.00000 1.93390
  endloop
 endfacet
 facet normal 0 1 0
  outer loop
   vertex -10.71486 4.00000 1.13390
   vertex -11.15342 4.00000 1.93390
   vertex -10.71486 4.00000 1.93390
  endloop
 endfacet
 facet normal 1 0 0
  outer loop
   vertex -10.71486 -4.00000 1.13390
   vertex -10.71486 4.00000 1.13390
   vertex -10.71486 4.00000 1.93390
  endloop
 endfacet
 facet normal 1 0 0
  outer loop
   vertex -10.71486 -4.00000 1.13390
   vertex -10.71486 4.00000 1.93390
   vertex -10.71486 -4.00000 1.93390
  endloop
 endfacet
 facet normal -1 0 0
  outer loop
   vertex -11.15342 -4.00000 1.13390
   vertex -11.15342 -4.00000 1.93390
   vertex -11.15342 4.00000 1.93390
  endloop
 endfacet
 facet normal -1 0 0
  outer loop
   vertex -11.15342 -4.00000 1.13390
   vertex -11.15342 4.00000 1.93390
   vertex -11.15342 4.00000 1.13390
  endloop
 endfacet
 facet normal 0 0 -1
  outer loop
   vertex -10.27746 -4.00000 1.13390
   vertex -10.27746 4.00000 1.13390
   vertex -9.83890 4.00000 1.13390
  endloop
 endfacet
 facet normal 0 0 -1
  outer loop
   vertex -10.27746 -4.00000 1.13390
   vertex -9.83890 4.00000 1.13390
   vertex -9.83890 -4.00000 1.13390
  endloop
 endfacet
 facet normal 0 0 1
  outer loop
   vertex -10.27746 -4.00000 1.93390
   vertex -9.83890 -4.00000 1.93390
   vertex -9.83890 4.00000 1.93390
  endloop
 endfacet
 facet normal 0 0 1
  outer loop
   vertex -10.27746 -4.00000 1.93390
   vertex -9.83890 4.00000 1.93390
   vertex -10.27746 4.00000 1.93390
  endloop
 endfacet
 facet normal 0 -1 0
  outer loop
   vertex -10.27746 -4.00000 1.13390
   vertex -9.83890 -4.00000 1.13390
   vertex -9.83890 -4.00000 1.93390
  endloop
 endfacet
 facet normal 0 -1 0
  outer loop
   vertex -10.27746 -4.00000 1.13390
   vertex -9.83890 -4.00000 1.93390
   vertex -10.27746 -4.00000 1.93390
  endloop
 endfacet
 facet normal 0 1 0
  outer loop
   vertex -9.83890 4.00000 1.13390
   vertex -10.27746 4.00000 1.13390
   vertex -10.27746 4.00000 1.93390
  endloop
 endfacet
 facet normal 0 1 0
  outer loop
   vertex -9.83890 4.00000 1.13390
   vertex -10.27746 4.00000 1.93390
   vertex -9.83890 4.00000 1.93390
  endloop
 endfacet
 facet normal 1 0 0
  outer loop
   vertex -9.83890 -4.00000 1.13390
   vertex -9.83890 4.00000 1.13390
   vertex -9.83890 4.00000 1.93390
  endloop
 endfacet
 facet normal 1 0 0
  outer loop
   vertex -9.83890 -4.00000 1.13390
   vertex -9.83890 4.00000 1.93390
   vertex -9.83890 -4.00000 1.93390
  endloop
 endfacet
 facet normal -1 0 0
  outer loop
   vertex -10.27746 -4.00000 1.13390
   vertex -10.27746 -4.00000 1.93390
   vertex -10.27746 4.00000 1.93390
  endloop
 endfacet
 facet normal -1 0 0
  outer loop
   vertex -10.27746 -4.00000 1.13390
   vertex -10.27746 4.00000 1.93390
   vertex -10.27746 4.00000 1.13390
  endloop
 endfacet
 facet normal 0 0 -1
  outer loop
   vertex -9.40150 -4.00000 1.13390
   vertex -9.40150 4.00000 1.13390
   vertex -8.96294 4.00000 1.13390
  endloop
 endfacet
 facet normal 0 0 -1
  outer loop
   vertex -9.40150 -4.00000 1.13390
   vertex -8.96294 4.00000 1.13390
   vertex -8.96294 -4.00000 1.13390
  endloop
 endfacet
 facet normal 0 0 1
  outer loop
   vertex -9.40150 -4.00000 1.93390
   vertex -8.96294 -4.00000 1.93390
   vertex -8.96294 4.00000 1.93390
  endloop
 endfacet
 facet normal 0 0 1
  outer loop
   vertex -9.40150 -4.00000 1.93390
   vertex -8.96294 4.00000 1.93390
   vertex -9.40150 4.00000 1.93390
  endloop
 endfacet
 facet normal 0 -1 0
  outer loop
   vertex -9.40150 -4.00000 1.13390
   vertex -8.96294 -4.00000 1.13390
   vertex -8.96294 -4.00000 1.93390
  endloop
 endfacet
 facet normal 0 -1 0
  outer loop
   vertex -9.40150 -4.00000 1.13390
   vertex -8.96294 -4.00000 1.93390
   vertex -9.40150 -4.00000 1.93390
  endloop
 endfacet
 facet normal 0 1 0
  outer loop
   vertex -8.96294 4.00000 1.13390
   vertex -9.40150 4.00000 1.13390
   vertex -9.40150 4.00000 1.93390
  endloop
 endfacet
 facet normal 0 1 0
  outer loop
   vertex -8.96294 4.00000 1.13390
   vertex -9.40150 4.00000 1.93390
   vertex -8.96294 4.00000 1.93390
  endloop
 endfacet
 facet normal 1 0 0
  outer loop
   vertex -8.96294 -4.00000 1.13390
   vertex -8.96294 4.00000 1.13390
   vertex -8.96294 4.00000 1.93390
  endloop
 endfacet
 facet normal 1 0 0
  outer loop
   vertex -8.96294 -4.00000 1.13390
   vertex -8.96294 4.00000 1.93390
   vertex -8.96294 -4.00000 1.93390
  endloop
 endfacet
 facet normal -1 0 0
  outer loop
   vertex -9.40150 -4.00000 1.13390
   vertex -9.40150 -4.00000 1.93390
   vertex -9.40150 4.00000 1.93390
  endloop
 endfacet
 facet normal -1 0 0
  outer loop
   vertex -9.40150 -4.00000 1.13390
   vertex -9.40150 4.00000 1.93390
   vertex -9.40150 4.00000 1.13390
  endloop
 endfacet
 facet normal 0 0 -1
  outer loop
   vertex 8.21870 -4.00000 1.13390
   vertex 8.21870 4.00000 1.13390
   vertex 8.65726 4.00000 1.13390
  endloop
 endfacet
 facet normal 0 0 -1
  outer loop
   vertex 8.21870 -4.00000 1.13390
   vertex 8.65726 4.00000 1.13390
   vertex 8.65726 -4.00000 1.13390
  endloop
 endfacet
 facet normal 0 0 1
  outer loop
   vertex 8.21870 -4.00000 1.93390
   vertex 8.65726 -4.00000 1.93390
   vertex 8.65726 4.00000 1.93390
  endloop
 endfacet
 facet normal 0 0 1
  outer loop
   vertex 8.21870 -4.00000 1.93390
   vertex 8.65726 4.00000 1.93390
   vertex 8.21870 4.00000 1.93390
  endloop
 endfacet
 facet normal 0 -1 0
  outer loop
   vertex 8.21870 -4.00000 1.13390
   vertex 8.65726 -4.00000 1.13390
   vertex 8.65726 -4.00000 1.93390
  endloop
 endfacet
 facet normal 0 -1 0
  outer loop
   vertex 8.21870 -4.00000 1.13390
   vertex 8.65726 -4.00000 1.93390
   vertex 8.21870 -4.00000 1.93390
  endloop
 endfacet
 facet normal 0 1 0
  outer loop
   vertex 8.65726 4.00000 1.13390
   vertex 8.21870 4.00000 1.13390
   vertex 8.21870 4.00000 1.93390
  endloop
 endfacet
 facet normal 0 1 0
  outer loop
   vertex 8.65726 4.00000 1.13390
   vertex 8.21870 4.00000 1.93390
   vertex 8.65726 4.00000 1.93390
  endloop
 endfacet
 facet normal 1 0 0
  outer loop
   vertex 8.65726 -4.00000 1.13390
   vertex 8.65726 4.00000 1.13390
   vertex 8.65726 4.00000 1.93390
  endloop
 endfacet
 facet normal 1 0 0
  outer loop
   vertex 8.65726 -4.00000 1.13390
   vertex 8.65726 4.00000 1.93390
   vertex 8.65726 -4.00000 1.93390
  endloop
 endfacet
 facet normal -1 0 0
  outer loop
   vertex 8.21870 -4.00000 1.13390
   vertex 8.21870 -4.00000 1.93390
   vertex 8.21870 4.00000 1.93390
  endloop
 endfacet
 facet normal -1 0 0
  outer loop
   vertex 8.21870 -4.00000 1.13390
   vertex 8.21870 4.00000 1.93390
   vertex 8.21870 4.00000 1.13390
  endloop
 endfacet
 facet normal 0 0 -1
  outer loop
   vertex 9.09466 -4.00000 1.13390
   vertex 9.09466 4.00000 1.13390
   vertex 9.53322 4.00000 1.13390
  endloop
 endfacet
 facet normal 0 0 -1
  outer loop
   vertex 9.09466 -4.00000 1.13390
   vertex 9.53322 4.00000 1.13390
   vertex 9.53322 -4.00000 1.13390
  endloop
 endfacet
 facet normal 0 0 1
  outer loop
   vertex 9.09466 -4.00000 1.93390
   vertex 9.53322 -4.00000 1.93390
   vertex 9.53322 4.00000 1.93390
  endloop
 endfacet
 facet normal 0 0 1
  outer loop
   vertex 9.09466 -4.00000 1.93390
   vertex 9.53322 4.00000 1.93390
   vertex 9.09466 4.00000 1.93390
  endloop
 endfacet
 facet normal 0 -1 0
  outer loop
   vertex 9.09466 -4.00000 1.13390
   vertex 9.53322 -4.00000 1.13390
   vertex 9.53322 -4.00000 1.93390
  endloop
 endfacet
 facet normal 0 -1 0
  outer loop
   vertex 9.09466 -4.00000 1.13390
   vertex 9.53322 -4.00000 1.93390
   vertex 9.09466 -4.00000 1.93390
  endloop
 endfacet
 facet normal 0 1 0
  outer loop
   vertex 9.53322 4.00000 1.13390
   vertex 9.09466 4.00000 1.13390
   vertex 9.09466 4.00000 1.93390
  endloop
 endfacet
 facet normal 0 1 0
  outer loop
   vertex 9.53322 4.00000 1.13390
   vertex 9.09466 4.00000 1.93390
   vertex 9.53322 4.00000 1.93390
  endloop
 endfacet
 facet normal 1 0 0
  outer loop
   vertex 9.53322 -4.00000 1.13390
   vertex 9.53322 4.00000 1.13390
   vertex 9.53322 4.00000 1.93390
  endloop
 endfacet
 facet normal 1 0 0
  outer loop
   vertex 9.53322 -4.00000 1.13390
   vertex 9.53322 4.00000 1.93390
   vertex 9.53322 -4.00000 1.93390
  endloop
 endfacet
 facet normal -1 0 0
  outer loop
   vertex 9.09466 -4.00000 1.13390
   vertex 9.09466 -4.00000 1.93390
   vertex 9.09466 4.00000 1.93390
  endloop
 endfacet
 facet normal -1 0 0
  outer loop
   vertex 9.09466 -4.00000 1.13390
   vertex 9.09466 4.00000 1.93390
   vertex 9.09466 4.00000 1.13390
  endloop
 endfacet
 facet normal 0 0 -1
  outer loop
   vertex 9.97062 -4.00000 1.13390
   vertex 9.97062 4.00000 1.13390
   vertex 10.40918 4.00000 1.13390
  endloop
 endfacet
 facet normal 0 0 -1
  outer loop
   vertex 9.97062 -4.00000 1.13390
   vertex 10.40918 4.00000 1.13390
   vertex 10.40918 -4.00000 1.13390
  endloop
 endfacet
 facet normal 0 0 1
  outer loop
   vertex 9.97062 -4.00000 1.93390
   vertex 10.40918 -4.00000 1.93390
   vertex 10.40918 4.00000 1.93390
  endloop
 endfacet
 facet normal 0 0 1
  outer loop
   vertex 9.97062 -4.00000 1.93390
   vertex 10.40918 4.00000 1.93390
   vertex 9.97062 4.00000 1.93390
  endloop
 endfacet
 facet normal 0 -1 0
  outer loop
   vertex 9.97062 -4.00000 1.13390
   vertex 10.40918 -4.00000 1.13390
   vertex 10.40918 -4.00000 1.93390
  endloop
 endfacet
 facet normal 0 -1 0
  outer loop
   vertex 9.97062 -4.00000 1.13390
   vertex 10.40918 -4.00000 1.93390
   vertex 9.97062 -4.00000 1.93390
  endloop
 endfacet
 facet normal 0 1 0
  outer loop
   vertex 10.40918 4.00000 1.13390
   vertex 9.97062 4.00000 1.13390
   vertex 9.97062 4.00000 1.93390
  endloop
 endfacet
 facet normal 0 1 0
  outer loop
   vertex 10.40918 4.00000 1.13390
   vertex 9.97062 4.00000 1.93390
   vertex 10.40918 4.00000 1.93390
  endloop
 endfacet
 facet normal 1 0 0
  outer loop
   vertex 10.40918 -4.00000 1.13390
   vertex 10.40918 4.00000 1.13390
   vertex 10.40918 4.00000 1.93390
  endloop
 endfacet
 facet normal 1 0 0
  outer loop
   vertex 10.40918 -4.00000 1.13390
   vertex 10.40918 4.00000 1.93390
   vertex 10.40918 -4.00000 1.93390
  endloop
 endfacet
 facet normal -1 0 0
  outer loop
   vertex 9.97062 -4.00000 1.13390
   vertex 9.97062 -4.00000 1.93390
   vertex 9.97062 4.00000 1.93390
  endloop
 endfacet
 facet normal -1 0 0
  outer loop
   vertex 9.97062 -4.00000 1.13390
   vertex 9.97062 4.00000 1.93390
   vertex 9.97062 4.00000 1.13390
  endloop
 endfacet
 facet normal 0 0 -1
  outer loop
   vertex 10.84658 -4.00000 1.13390
   vertex 10.84658 4.00000 1.13390
   vertex 11.28514 4.00000 1.13390
  endloop
 endfacet
 facet normal 0 0 -1
  outer loop
   vertex 10.84658 -4.00000 1.13390
   vertex 11.28514 4.00000 1.13390
   vertex 11.28514 -4.00000 1.13390
  endloop
 endfacet
 facet normal 0 0 1
  outer loop
   vertex 10.84658 -4.00000 1.93390
   vertex 11.28514 -4.00000 1.93390
   vertex 11.28514 4.00000 1.93390
  endloop
 endfacet
 facet normal 0 0 1
  outer loop
   vertex 10.84658 -4.00000 1.93390
   vertex 11.28514 4.00000 1.93390
   vertex 10.84658 4.00000 1.93390
  endloop
 endfacet
 facet normal 0 -1 0
  outer loop
   vertex 10.84658 -4.00000 1.13390
   vertex 11.28514 -4.00000 1.13390
   vertex 11.28514 -4.00000 1.93390
  endloop
 endfacet
 facet normal 0 -1 0
  outer loop
   vertex 10.84658 -4.00000 1.13390
   vertex 11.28514 -4.00000 1.93390
   vertex 10.84658 -4.00000 1.93390
  endloop
 endfacet
 facet normal 0 1 0
  outer loop
   vertex 11.28514 4.00000 1.13390
   vertex 10.84658 4.00000 1.13390
   vertex 10.84658 4.00000 1.93390
  endloop
 endfacet
 facet normal 0 1 0
  outer loop
   vertex 11.28514 4.00000 1.13390
   vertex 10.84658 4.00000 1.93390
   vertex 11.28514 4.00000 1.93390
  endloop
 endfacet
 facet normal 1 0 0
  outer loop
   vertex 11.28514 -4.00000 1.13390
   vertex 11.28514 4.00000 1.13390
   vertex 11.28514 4.00000 1.93390
  endloop
 endfacet
 facet normal 1 0 0
  outer loop
   vertex 11.28514 -4.00000 1.13390
   vertex 11.28514 4.00000 1.93390
   vertex 11.28514 -4.00000 1.93390
  endloop
 endfacet
 facet normal -1 0 0
  outer loop
   vertex 10.84658 -4.00000 1.13390
   vertex 10.84658 -4.00000 1.93390
   vertex 10.84658 4.00000 1.93390
  endloop
 endfacet
 facet normal -1 0 0
  outer loop
   vertex 10.84658 -4.00000 1.13390
   vertex 10.84658 4.00000 1.93390
   vertex 10.84658 4.00000 1.13390
  endloop
 endfacet
 facet normal 0 0 -1
  outer loop
   vertex 11.72254 -4.00000 1.13390
   vertex 11.72254 4.00000 1.13390
   vertex 12.16110 4.00000 1.13390
  endloop
 endfacet
 facet normal 0 0 -1
  outer loop
   vertex 11.72254 -4.00000 1.13390
   vertex 12.16110 4.00000 1.13390
   vertex 12.16110 -4.00000 1.13390
  endloop
 endfacet
 facet normal 0 0 1
  outer loop
   vertex 11.72254 -4.00000 1.93390
   vertex 12.16110 -4.00000 1.93390
   vertex 12.16110 4.00000 1.93390
  endloop
 endfacet
 facet normal 0 0 1
  outer loop
   vertex 11.72254 -4.00000 1.93390
   vertex 12.16110 4.00000 1.93390
   vertex 11.72254 4.00000 1.93390
  endloop
 endfacet
 facet normal 0 -1 0
  outer loop
   vertex 11.72254 -4.00000 1.13390
   vertex 12.16110 -4.00000 1.13390
   vertex 12.16110 -4.00000 1.93390
  endloop
 endfacet
 facet normal 0 -1 0
  outer loop
   vertex 11.72254 -4.00000 1.13390
   vertex 12.16110 -4.00000 1.93390
   vertex 11.72254 -4.00000 1.93390
  endloop
 endfacet
 facet normal 0 1 0
  outer loop
   vertex 12.16110 4.00000 1.13390
   vertex 11.72254 4.00000 1.13390
   vertex 11.72254 4.00000 1.93390
  endloop
 endfacet
 facet normal 0 1 0
  outer loop
   vertex 12.16110 4.00000 1.13390
   vertex 11.72254 4.00000 1.93390
   vertex 12.16110 4.00000 1.93390
  endloop
 endfacet
 facet normal 1 0 0
  outer loop
   vertex 12.16110 -4.00000 1.13390
   vertex 12.16110 4.00000 1.13390
   vertex 12.16110 4.00000 1.93390
  endloop
 endfacet
 facet normal 1 0 0
  outer loop
   vertex 12.16110 -4.00000 1.13390
   vertex 12.16110 4.00000 1.93390
   vertex 12.16110 -4.00000 1.93390
  endloop
 endfacet
 facet normal -1 0 0
  outer loop
   vertex 11.72254 -4.00000 1.13390
   vertex 11.72254 -4.00000 1.93390
   vertex 11.72254 4.00000 1.93390
  endloop
 endfacet
 facet normal -1 0 0
  outer loop
   vertex 11.72254 -4.00000 1.13390
   vertex 11.72254 4.00000 1.93390
   vertex 11.72254 4.00000 1.13390
  endloop
 endfacet
 facet normal 0 0 -1
  outer loop
   vertex 12.59850 -4.00000 1.13390
   vertex 12.59850 4.00000 1.13390
   vertex 13.03706 4.00000 1.13390
  endloop
 endfacet
 facet normal 0 0 -1
  outer loop
   vertex 12.59850 -4.00000 1.13390
   vertex 13.03706 4.00000 1.13390
   vertex 13.03706 -4.00000 1.13390
  endloop
 endfacet
 facet normal 0 0 1
  outer loop
   vertex 12.59850 -4.00000 1.93390
   vertex 13.03706 -4.00000 1.93390
   vertex 13.03706 4.00000 1.93390
  endloop
 endfacet
 facet normal 0 0 1
  outer loop
   vertex 12.59850 -4.00000 1.93390
   vertex 13.03706 4.00000 1.93390
   vertex 12.59850 4.00000 1.93390
  endloop
 endfacet
 facet normal 0 -1 0
  outer loop
   vertex 12.59850 -4.00000 1.13390
   vertex 13.03706 -4.00000 1.13390
   vertex 13.03706 -4.00000 1.93390
  endloop
 endfacet
 facet normal 0 -1 0
  outer loop
   vertex 12.59850 -4.00000 1.13390
   vertex 13.03706 -4.00000 1.93390
   vertex 12.59850 -4.00000 1.93390
  endloop
 endfacet
 facet normal 0 1 0
  outer loop
   vertex 13.03706 4.00000 1.13390
   vertex 12.59850 4.00000 1.13390
   vertex 12.59850 4.00000 1.93390
  endloop
 endfacet
 facet normal 0 1 0
  outer loop
   vertex 13.03706 4.00000 1.13390
   vertex 12.59850 4.00000 1.93390
   vertex 13.03706 4.00000 1.93390
  endloop
 endfacet
 facet normal 1 0 0
  outer loop
   vertex 13.03706 -4.00000 1.13390
   vertex 13.03706 4.00000 1.13390
   vertex 13.03706 4.00000 1.93390
  endloop
 endfacet
 facet normal 1 0 0
  outer loop
   vertex 13.03706 -4.00000 1.13390
   vertex 13.03706 4.00000 1.93390
   vertex 13.03706 -4.00000 1.93390
  endloop
 endfacet
 facet normal -1 0 0
  outer loop
   vertex 12.59850 -4.00000 1.13390
   vertex 12.59850 -4.00000 1.93390
   vertex 12.59850 4.00000 1.93390
  endloop
 endfacet
 facet normal -1 0 0
  outer loop
   vertex 12.59850 -4.00000 1.13390
   vertex 12.59850 4.00000 1.93390
   vertex 12.59850 4.00000 1.13390
  endloop
 endfacet
endsolid pmma_waveguide
