solid pmma_waveguide
 facet normal 0 0 -1
  outer loop
   vertex -15.00000 -6.00000 0.00000
   vertex -15.00000 6.00000 0.00000
   vertex 15.00000 6.00000 0.00000
  endloop
 endfacet
 facet normal 0 0 -1
  outer loop
   vertex -15.00000 -6.00000 0.00000
   vertex 15.00000 6.00000 0.00000
   vertex 15.00000 -6.00000 0.00000
  endloop
 endfacet
 facet normal 0 0 1
  outer loop
   vertex -15.00000 -6.00000 1.47720
   vertex 15.00000 -6.00000 1.47720
   vertex 15.00000 6.00000 1.47720
  endloop
 endfacet
 facet normal 0 0 1
  outer loop
   vertex -15.00000 -6.00000 1.47720
   vertex 15.00000 6.00000 1.47720
   vertex -15.00000 6.00000 1.47720
  endloop
 endfacet
 facet normal 0 -1 0
  outer loop
   vertex -15.00000 -6.00000 0.00000
   vertex 15.00000 -6.00000 0.00000
   vertex 15.00000 -6.00000 1.47720
  endloop
 endfacet
 facet normal 0 -1 0
  outer loop
   vertex -15.00000 -6.00000 0.00000
   vertex 15.00000 -6.00000 1.47720
   vertex -15.00000 -6.00000 1.47720
  endloop
 endfacet
 facet normal 0 1 0
  outer loop
   vertex 15.00000 6.00000 0.00000
   vertex -15.00000 6.00000 0.00000
   vertex -15.00000 6.00000 1.47720
  endloop
 endfacet
 facet normal 0 1 0
  outer loop
   vertex 15.00000 6.00000 0.00000
   vertex -15.00000 6.00000 1.47720
   vertex 15.00000 6.00000 1.47720
  endloop
 endfacet
 facet normal 1 0 0
  outer loop
   vertex 15.00000 -6.00000 0.00000
   vertex 15.00000 6.00000 0.00000
   vertex 15.00000 6.00000 1.47720
  endloop
 endfacet
 facet normal 1 0 0
  outer loop
   vertex 15.00000 -6.00000 0.00000
   vertex 15.00000 6.00000 1.47720
   vertex 15.00000 -6.00000 1.47720
  endloop
 endfacet
 facet normal -1 0 0
  outer loop
   vertex -15.00000 -6.00000 0.00000
   vertex -15.00000 -6.00000 1.47720
   vertex -15.00000 6.00000 1.47720
  endloop
 endfacet
 facet normal -1 0 0
  outer loop
   vertex -15.00000 -6.00000 0.00000
   vertex -15.00000 6.00000 1.47720
   vertex -15.00000 6.00000 0.00000
  endloop
 endfacet
 facet normal 0 0 -1
  outer loop
   vertex -13.74132 -4.00000 1.47720
   vertex -13.74132 4.00000 1.47720
   vertex -13.36634 4.00000 1.47720
  endloop
 endfacet
 facet normal 0 0 -1
  outer loop
   vertex -13.74132 -4.00000 1.47720
   vertex -13.36634 4.00000 1.47720
   vertex -13.36634 -4.00000 1.47720
  endloop
 endfacet
 facet normal 0 0 1
  outer loop
   vertex -13.74132 -4.00000 1.87752
   vertex -13.36634 -4.00000 1.87752
   vertex -13.36634 4.00000 1.87752
  endloop
 endfacet
 facet normal 0 0 1
  outer loop
   vertex -13.74132 -4.00000 1.87752
   vertex -13.36634 4.00000 1.87752
   vertex -13.74132 4.00000 1.87752
  endloop
 endfacet
 facet normal 0 -1 0
  outer loop
   vertex -13.74132 -4.00000 1.47720
   vertex -13.36634 -4.00000 1.47720
   vertex -13.36634 -4.00000 1.87752
  endloop
 endfacet
 facet normal 0 -1 0
  outer loop
   vertex -13.74132 -4.00000 1.47720
   vertex -13.36634 -4.00000 1.87752
   vertex -13.74132 -4.00000 1.87752
  endloop
 endfacet
 facet normal 0 1 0
  outer loop
   vertex -13.36634 4.00000 1.47720
   vertex -13.74132 4.00000 1.47720
   vertex -13.74132 4.00000 1.87752
  endloop
 endfacet
 facet normal 0 1 0
  outer loop
   vertex -13.36634 4.00000 1.47720
   vertex -13.74132 4.00000 1.87752
   vertex -13.36634 4.00000 1.87752
  endloop
 endfacet
 facet normal 1 0 0
  outer loop
   vertex -13.36634 -4.00000 1.47720
   vertex -13.36634 4.00000 1.47720
   vertex -13.36634 4.00000 1.87752
  endloop
 endfacet
 facet normal 1 0 0
  outer loop
   vertex -13.36634 -4.00000 1.47720
   vertex -13.36634 4.00000 1.87752
   vertex -13.36634 -4.00000 1.87752
  endloop
 endfacet
 facet normal -1 0 0
  outer loop
   vertex -13.74132 -4.00000 1.47720
   vertex -13.74132 -4.00000 1.87752
   vertex -13.74132 4.00000 1.87752
  endloop
 endfacet
 facet normal -1 0 0
  outer loop
   vertex -13.74132 -4.00000 1.47720
   vertex -13.74132 4.00000 1.87752
   vertex -13.74132 4.00000 1.47720
  endloop
 endfacet
 facet normal 0 0 -1
  outer loop
   vertex -12.84898 -4.00000 1.47720
   vertex -12.84898 4.00000 1.47720
   vertex -12.47400 4.00000 1.47720
  endloop
 endfacet
 facet normal 0 0 -1
  outer loop
   vertex -12.84898 -4.00000 1.47720
   vertex -12.47400 4.00000 1.47720
   vertex -12.47400 -4.00000 1.47720
  endloop
 endfacet
 facet normal 0 0 1
  outer loop
   vertex -12.84898 -4.00000 1.87752
   vertex -12.47400 -4.00000 1.87752
   vertex -12.47400 4.00000 1.87752
  endloop
 endfacet
 facet normal 0 0 1
  outer loop
   vertex -12.84898 -4.00000 1.87752
   vertex -12.47400 4.00000 1.87752
   vertex -12.84898 4.00000 1.87752
  endloop
 endfacet
 facet normal 0 -1 0
  outer loop
   vertex -12.84898 -4.00000 1.47720
   vertex -12.47400 -4.00000 1.47720
   vertex -12.47400 -4.00000 1.87752
  endloop
 endfacet
 facet normal 0 -1 0
  outer loop
   vertex -12.84898 -4.00000 1.47720
   vertex -12.47400 -4.00000 1.87752
   vertex -12.84898 -4.00000 1.87752
  endloop
 endfacet
 facet normal 0 1 0
  outer loop
   vertex -12.47400 4.00000 1.47720
   vertex -12.84898 4.00000 1.47720
   vertex -12.84898 4.00000 1.87752
  endloop
 endfacet
 facet normal 0 1 0
  outer loop
   vertex -12.47400 4.00000 1.47720
   vertex -12.84898 4.00000 1.87752
   vertex -12.47400 4.00000 1.87752
  endloop
 endfacet
 facet normal 1 0 0
  outer loop
   vertex -12.47400 -4.00000 1.47720
   vertex -12.47400 4.00000 1.47720
   vertex -12.47400 4.00000 1.87752
  endloop
 endfacet
 facet normal 1 0 0
  outer loop
   vertex -12.47400 -4.00000 1.47720
   vertex -12.47400 4.00000 1.87752
   vertex -12.47400 -4.00000 1.87752
  endloop
 endfacet
 facet normal -1 0 0
  outer loop
   vertex -12.84898 -4.00000 1.47720
   vertex -12.84898 -4.00000 1.87752
   vertex -12.84898 4.00000 1.87752
  endloop
 endfacet
 facet normal -1 0 0
  outer loop
   vertex -12.84898 -4.00000 1.47720
   vertex -12.84898 4.00000 1.87752
   vertex -12.84898 4.00000 1.47720
  endloop
 endfacet
 facet normal 0 0 -1
  outer loop
   vertex -11.95664 -4.00000 1.47720
   vertex -11.95664 4.00000 1.47720
   vertex -11.58166 4.00000 1.47720
  endloop
 endfacet
 facet normal 0 0 -1
  outer loop
   vertex -11.95664 -4.00000 1.47720
   vertex -11.58166 4.00000 1.47720
   vertex -11.58166 -4.00000 1.47720
  endloop
 endfacet
 facet normal 0 0 1
  outer loop
   vertex -11.95664 -4.00000 1.87752
   vertex -11.58166 -4.00000 1.87752
   vertex -11.58166 4.00000 1.87752
  endloop
 endfacet
 facet normal 0 0 1
  outer loop
   vertex -11.95664 -4.00000 1.87752
   vertex -11.58166 4.00000 1.87752
   vertex -11.95664 4.00000 1.87752
  endloop
 endfacet
 facet normal 0 -1 0
  outer loop
   vertex -11.95664 -4.00000 1.47720
   vertex -11.58166 -4.00000 1.47720
   vertex -11.58166 -4.00000 1.87752
  endloop
 endfacet
 facet normal 0 -1 0
  outer loop
   vertex -11.95664 -4.00000 1.47720
   vertex -11.58166 -4.00000 1.87752
   vertex -11.95664 -4.00000 1.87752
  endloop
 endfacet
 facet normal 0 1 0
  outer loop
   vertex -11.58166 4.00000 1.47720
   vertex -11.95664 4.00000 1.47720
   vertex -11.95664 4.00000 1.87752
  endloop
 endfacet
 facet normal 0 1 0
  outer loop
   vertex -11.58166 4.00000 1.47720
   vertex -11.95664 4.00000 1.87752
   vertex -11.58166 4.00000 1.87752
  endloop
 endfacet
 facet normal 1 0 0
  outer loop
   vertex -11.58166 -4.00000 1.47720
   vertex -11.58166 4.00000 1.47720
   vertex -11.58166 4.00000 1.87752
  endloop
 endfacet
 facet normal 1 0 0
  outer loop
   vertex -11.58166 -4.00000 1.47720
   vertex -11.58166 4.00000 1.87752
   vertex -11.58166 -4.00000 1.87752
  endloop
 endfacet
 facet normal -1 0 0
  outer loop
   vertex -11.95664 -4.00000 1.47720
   vertex -11.95664 -4.00000 1.87752
   vertex -11.95664 4.00000 1.87752
  endloop
 endfacet
 facet normal -1 0 0
  outer loop
   vertex -11.95664 -4.00000 1.47720
   vertex -11.95664 4.00000 1.87752
   vertex -11.95664 4.00000 1.47720
  endloop
 endfacet
 facet normal 0 0 -1
  outer loop
   vertex -11.06430 -4.00000 1.47720
   vertex -11.06430 4.00000 1.47720
   vertex -10.68932 4.00000 1.47720
  endloop
 endfacet
 facet normal 0 0 -1
  outer loop
   vertex -11.06430 -4.00000 1.47720
   vertex -10.68932 4.00000 1.47720
   vertex -10.68932 -4.00000 1.47720
  endloop
 endfacet
 facet normal 0 0 1
  outer loop
   vertex -11.06430 -4.00000 1.87752
   vertex -10.68932 -4.00000 1.87752
   vertex -10.68932 4.00000 1.87752
  endloop
 endfacet
 facet normal 0 0 1
  outer loop
   vertex -11.06430 -4.00000 1.87752
   vertex -10.68932 4.00000 1.87752
   vertex -11.06430 4.00000 1.87752
  endloop
 endfacet
 facet normal 0 -1 0
  outer loop
   vertex -11.06430 -4.00000 1.47720
   vertex -10.68932 -4.00000 1.47720
   vertex -10.68932 -4.00000 1.87752
  endloop
 endfacet
 facet normal 0 -1 0
  outer loop
   vertex -11.06430 -4.00000 1.47720
   vertex -10.68932 -4.00000 1.87752
   vertex -11.06430 -4.00000 1.87752
  endloop
 endfacet
 facet normal 0 1 0
  outer loop
   vertex -10.68932 4.00000 1.47720
   vertex -11.06430 4.00000 1.47720
   vertex -11.06430 4.00000 1.87752
  endloop
 endfacet
 facet normal 0 1 0
  outer loop
   vertex -10.68932 4.00000 1.47720
   vertex -11.06430 4.00000 1.87752
   vertex -10.68932 4.00000 1.87752
  endloop
 endfacet
 facet normal 1 0 0
  outer loop
   vertex -10.68932 -4.00000 1.47720
   vertex -10.68932 4.00000 1.47720
   vertex -10.68932 4.00000 1.87752
  endloop
 endfacet
 facet normal 1 0 0
  outer loop
   vertex -10.68932 -4.00000 1.47720
   vertex -10.68932 4.00000 1.87752
   vertex -10.68932 -4.00000 1.87752
  endloop
 endfacet
 facet normal -1 0 0
  outer loop
   vertex -11.06430 -4.00000 1.47720
   vertex -11.06430 -4.00000 1.87752
   vertex -11.06430 4.00000 1.87752
  endloop
 endfacet
 facet normal -1 0 0
  outer loop
   vertex -11.06430 -4.00000 1.47720
   vertex -11.06430 4.00000 1.87752
   vertex -11.06430 4.00000 1.47720
  endloop
 endfacet
 facet normal 0 0 -1
  outer loop
   vertex -10.17196 -4.00000 1.47720
   vertex -10.17196 4.00000 1.47720
   vertex -9.79698 4.00000 1.47720
  endloop
 endfacet
 facet normal 0 0 -1
  outer loop
   vertex -10.17196 -4.00000 1.47720
   vertex -9.79698 4.00000 1.47720
   vertex -9.79698 -4.00000 1.47720
  endloop
 endfacet
 facet normal 0 0 1
  outer loop
   vertex -10.17196 -4.00000 1.87752
   vertex -9.79698 -4.00000 1.87752
   vertex -9.79698 4.00000 1.87752
  endloop
 endfacet
 facet normal 0 0 1
  outer loop
   vertex -10.17196 -4.00000 1.87752
   vertex -9.79698 4.00000 1.87752
   vertex -10.17196 4.00000 1.87752
  endloop
 endfacet
 facet normal 0 -1 0
  outer loop
   vertex -10.17196 -4.00000 1.47720
   vertex -9.79698 -4.00000 1.47720
   vertex -9.79698 -4.00000 1.87752
  endloop
 endfacet
 facet normal 0 -1 0
  outer loop
   vertex -10.17196 -4.00000 1.47720
   vertex -9.79698 -4.00000 1.87752
   vertex -10.17196 -4.00000 1.87752
  endloop
 endfacet
 facet normal 0 1 0
  outer loop
   vertex -9.79698 4.00000 1.47720
   vertex -10.17196 4.00000 1.47720
   vertex -10.17196 4.00000 1.87752
  endloop
 endfacet
 facet normal 0 1 0
  outer loop
   vertex -9.79698 4.00000 1.47720
   vertex -10.17196 4.00000 1.87752
   vertex -9.79698 4.00000 1.87752
  endloop
 endfacet
 facet normal 1 0 0
  outer loop
   vertex -9.79698 -4.00000 1.47720
   vertex -9.79698 4.00000 1.47720
   vertex -9.79698 4.00000 1.87752
  endloop
 endfacet
 facet normal 1 0 0
  outer loop
   vertex -9.79698 -4.00000 1.47720
   vertex -9.79698 4.00000 1.87752
   vertex -9.79698 -4.00000 1.87752
  endloop
 endfacet
 facet normal -1 0 0
  outer loop
   vertex -10.17196 -4.00000 1.47720
   vertex -10.17196 -4.00000 1.87752
   vertex -10.17196 4.00000 1.87752
  endloop
 endfacet
 facet normal -1 0 0
  outer loop
   vertex -10.17196 -4.00000 1.47720
   vertex -10.17196 4.00000 1.87752
   vertex -10.17196 4.00000 1.47720
  endloop
 endfacet
 facet normal 0 0 -1
  outer loop
   vertex -9.27962 -4.00000 1.47720
   vertex -9.27962 4.00000 1.47720
   vertex -8.90464 4.00000 1.47720
  endloop
 endfacet
 facet normal 0 0 -1
  outer loop
   vertex -9.27962 -4.00000 1.47720
   vertex -8.90464 4.00000 1.47720
   vertex -8.90464 -4.00000 1.47720
  endloop
 endfacet
 facet normal 0 0 1
  outer loop
   vertex -9.27962 -4.00000 1.87752
   vertex -8.90464 -4.00000 1.87752
   vertex -8.90464 4.00000 1.87752
  endloop
 endfacet
 facet normal 0 0 1
  outer loop
   vertex -9.27962 -4.00000 1.87752
   vertex -8.90464 4.00000 1.87752
   vertex -9.27962 4.00000 1.87752
  endloop
 endfacet
 facet normal 0 -1 0
  outer loop
   vertex -9.27962 -4.00000 1.47720
   vertex -8.90464 -4.00000 1.47720
   vertex -8.90464 -4.00000 1.87752
  endloop
 endfacet
 facet normal 0 -1 0
  outer loop
   vertex -9.27962 -4.00000 1.47720
   vertex -8.90464 -4.00000 1.87752
   vertex -9.27962 -4.00000 1.87752
  endloop
 endfacet
 facet normal 0 1 0
  outer loop
   vertex -8.90464 4.00000 1.47720
   vertex -9.27962 4.00000 1.47720
   vertex -9.27962 4.00000 1.87752
  endloop
 endfacet
 facet normal 0 1 0
  outer loop
   vertex -8.90464 4.00000 1.47720
   vertex -9.27962 4.00000 1.87752
   vertex -8.90464 4.00000 1.87752
  endloop
 endfacet
 facet normal 1 0 0
  outer loop
   vertex -8.90464 -4.00000 1.47720
   vertex -8.90464 4.00000 1.47720
   vertex -8.90464 4.00000 1.87752
  endloop
 endfacet
 facet normal 1 0 0
  outer loop
   vertex -8.90464 -4.00000 1.47720
   vertex -8.90464 4.00000 1.87752
   vertex -8.90464 -4.00000 1.87752
  endloop
 endfacet
 facet normal -1 0 0
  outer loop
   vertex -9.27962 -4.00000 1.47720
   vertex -9.27962 -4.00000 1.87752
   vertex -9.27962 4.00000 1.87752
  endloop
 endfacet
 facet normal -1 0 0
  outer loop
   vertex -9.27962 -4.00000 1.47720
   vertex -9.27962 4.00000 1.87752
   vertex -9.27962 4.00000 1.47720
  endloop
 endfacet
 facet normal 0 0 -1
  outer loop
   vertex 8.25868 -4.00000 1.47720
   vertex 8.25868 4.00000 1.47720
   vertex 8.63366 4.00000 1.47720
  endloop
 endfacet
 facet normal 0 0 -1
  outer loop
   vertex 8.25868 -4.00000 1.47720
   vertex 8.63366 4.00000 1.47720
   vertex 8.63366 -4.00000 1.47720
  endloop
 endfacet
 facet normal 0 0 1
  outer loop
   vertex 8.25868 -4.00000 1.87752
   vertex 8.63366 -4.00000 1.87752
   vertex 8.63366 4.00000 1.87752
  endloop
 endfacet
 facet normal 0 0 1
  outer loop
   vertex 8.25868 -4.00000 1.87752
   vertex 8.63366 4.00000 1.87752
   vertex 8.25868 4.00000 1.87752
  endloop
 endfacet
 facet normal 0 -1 0
  outer loop
   vertex 8.25868 -4.00000 1.47720
   vertex 8.63366 -4.00000 1.47720
   vertex 8.63366 -4.00000 1.87752
  endloop
 endfacet
 facet normal 0 -1 0
  outer loop
   vertex 8.25868 -4.00000 1.47720
   vertex 8.63366 -4.00000 1.87752
   vertex 8.25868 -4.00000 1.87752
  endloop
 endfacet
 facet normal 0 1 0
  outer loop
   vertex 8.63366 4.00000 1.47720
   vertex 8.25868 4.00000 1.47720
   vertex 8.25868 4.00000 1.87752
  endloop
 endfacet
 facet normal 0 1 0
  outer loop
   vertex 8.63366 4.00000 1.47720
   vertex 8.25868 4.00000 1.87752
   vertex 8.63366 4.00000 1.87752
  endloop
 endfacet
 facet normal 1 0 0
  outer loop
   vertex 8.63366 -4.00000 1.47720
   vertex 8.63366 4.00000 1.47720
   vertex 8.63366 4.00000 1.87752
  endloop
 endfacet
 facet normal 1 0 0
  outer loop
   vertex 8.63366 -4.00000 1.47720
   vertex 8.63366 4.00000 1.87752
   vertex 8.63366 -4.00000 1.87752
  endloop
 endfacet
 facet normal -1 0 0
  outer loop
   vertex 8.25868 -4.00000 1.47720
   vertex 8.25868 -4.00000 1.87752
   vertex 8.25868 4.00000 1.87752
  endloop
 endfacet
 facet normal -1 0 0
  outer loop
   vertex 8.25868 -4.00000 1.47720
   vertex 8.25868 4.00000 1.87752
   vertex 8.25868 4.00000 1.47720
  endloop
 endfacet
 facet normal 0 0 -1
  outer loop
   vertex 9.15102 -4.00000 1.47720
   vertex 9.15102 4.00000 1.47720
   vertex 9.52600 4.00000 1.47720
  endloop
 endfacet
 facet normal 0 0 -1
  outer loop
   vertex 9.15102 -4.00000 1.47720
   vertex 9.52600 4.00000 1.47720
   vertex 9.52600 -4.00000 1.47720
  endloop
 endfacet
 facet normal 0 0 1
  outer loop
   vertex 9.15102 -4.00000 1.87752
   vertex 9.52600 -4.00000 1.87752
   vertex 9.52600 4.00000 1.87752
  endloop
 endfacet
 facet normal 0 0 1
  outer loop
   vertex 9.15102 -4.00000 1.87752
   vertex 9.52600 4.00000 1.87752
   vertex 9.15102 4.00000 1.87752
  endloop
 endfacet
 facet normal 0 -1 0
  outer loop
   vertex 9.15102 -4.00000 1.47720
   vertex 9.52600 -4.00000 1.47720
   vertex 9.52600 -4.00000 1.87752
  endloop
 endfacet
 facet normal 0 -1 0
  outer loop
   vertex 9.15102 -4.00000 1.47720
   vertex 9.52600 -4.00000 1.87752
   vertex 9.15102 -4.00000 1.87752
  endloop
 endfacet
 facet normal 0 1 0
  outer loop
   vertex 9.52600 4.00000 1.47720
   vertex 9.15102 4.00000 1.47720
   vertex 9.15102 4.00000 1.87752
  endloop
 endfacet
 facet normal 0 1 0
  outer loop
   vertex 9.52600 4.00000 1.47720
   vertex 9.15102 4.00000 1.87752
   vertex 9.52600 4.00000 1.87752
  endloop
 endfacet
 facet normal 1 0 0
  outer loop
   vertex 9.52600 -4.00000 1.47720
   vertex 9.52600 4.00000 1.47720
   vertex 9.52600 4.00000 1.87752
  endloop
 endfacet
 facet normal 1 0 0
  outer loop
   vertex 9.52600 -4.00000 1.47720
   vertex 9.52600 4.00000 1.87752
   vertex 9.52600 -4.00000 1.87752
  endloop
 endfacet
 facet normal -1 0 0
  outer loop
   vertex 9.15102 -4.00000 1.47720
   vertex 9.15102 -4.00000 1.87752
   vertex 9.15102 4.00000 1.87752
  endloop
 endfacet
 facet normal -1 0 0
  outer loop
   vertex 9.15102 -4.00000 1.47720
   vertex 9.15102 4.00000 1.87752
   vertex 9.15102 4.00000 1.47720
  endloop
 endfacet
 facet normal 0 0 -1
  outer loop
   vertex 10.04336 -4.00000 1.47720
   vertex 10.04336 4.00000 1.47720
   vertex 10.41834 4.00000 1.47720
  endloop
 endfacet
 facet normal 0 0 -1
  outer loop
   vertex 10.04336 -4.00000 1.47720
   vertex 10.41834 4.00000 1.47720
   vertex 10.41834 -4.00000 1.47720
  endloop
 endfacet
 facet normal 0 0 1
  outer loop
   vertex 10.04336 -4.00000 1.87752
   vertex 10.41834 -4.00000 1.87752
   vertex 10.41834 4.00000 1.87752
  endloop
 endfacet
 facet normal 0 0 1
  outer loop
   vertex 10.04336 -4.00000 1.87752
   vertex 10.41834 4.00000 1.87752
   vertex 10.04336 4.00000 1.87752
  endloop
 endfacet
 facet normal 0 -1 0
  outer loop
   vertex 10.04336 -4.00000 1.47720
   vertex 10.41834 -4.00000 1.47720
   vertex 10.41834 -4.00000 1.87752
  endloop
 endfacet
 facet normal 0 -1 0
  outer loop
   vertex 10.04336 -4.00000 1.47720
   vertex 10.41834 -4.00000 1.87752
   vertex 10.04336 -4.00000 1.87752
  endloop
 endfacet
 facet normal 0 1 0
  outer loop
   vertex 10.41834 4.00000 1.47720
   vertex 10.04336 4.00000 1.47720
   vertex 10.04336 4.00000 1.87752
  endloop
 endfacet
 facet normal 0 1 0
  outer loop
   vertex 10.41834 4.00000 1.47720
   vertex 10.04336 4.00000 1.87752
   vertex 10.41834 4.00000 1.87752
  endloop
 endfacet
 facet normal 1 0 0
  outer loop
   vertex 10.41834 -4.00000 1.47720
   vertex 10.41834 4.00000 1.47720
   vertex 10.41834 4.00000 1.87752
  endloop
 endfacet
 facet normal 1 0 0
  outer loop
   vertex 10.41834 -4.00000 1.47720
   vertex 10.41834 4.00000 1.87752
   vertex 10.41834 -4.00000 1.87752
  endloop
 endfacet
 facet normal -1 0 0
  outer loop
   vertex 10.04336 -4.00000 1.47720
   vertex 10.04336 -4.00000 1.87752
   vertex 10.04336 4.00000 1.87752
  endloop
 endfacet
 facet normal -1 0 0
  outer loop
   vertex 10.04336 -4.00000 1.47720
   vertex 10.04336 4.00000 1.87752
   vertex 10.04336 4.00000 1.47720
  endloop
 endfacet
 facet normal 0 0 -1
  outer loop
   vertex 10.93570 -4.00000 1.47720
   vertex 10.93570 4.00000 1.47720
   vertex 11.31068 4.00000 1.47720
  endloop
 endfacet
 facet normal 0 0 -1
  outer loop
   vertex 10.93570 -4.00000 1.47720
   vertex 11.31068 4.00000 1.47720
   vertex 11.31068 -4.00000 1.47720
  endloop
 endfacet
 facet normal 0 0 1
  outer loop
   vertex 10.93570 -4.00000 1.87752
   vertex 11.31068 -4.00000 1.87752
   vertex 11.31068 4.00000 1.87752
  endloop
 endfacet
 facet normal 0 0 1
  outer loop
   vertex 10.93570 -4.00000 1.87752
   vertex 11.31068 4.00000 1.87752
   vertex 10.93570 4.00000 1.87752
  endloop
 endfacet
 facet normal 0 -1 0
  outer loop
   vertex 10.93570 -4.00000 1.47720
   vertex 11.31068 -4.00000 1.47720
   vertex 11.31068 -4.00000 1.87752
  endloop
 endfacet
 facet normal 0 -1 0
  outer loop
   vertex 10.93570 -4.00000 1.47720
   vertex 11.31068 -4.00000 1.87752
   vertex 10.93570 -4.00000 1.87752
  endloop
 endfacet
 facet normal 0 1 0
  outer loop
   vertex 11.31068 4.00000 1.47720
   vertex 10.93570 4.00000 1.47720
   vertex 10.93570 4.00000 1.87752
  endloop
 endfacet
 facet normal 0 1 0
  outer loop
   vertex 11.31068 4.00000 1.47720
   vertex 10.93570 4.00000 1.87752
   vertex 11.31068 4.00000 1.87752
  endloop
 endfacet
 facet normal 1 0 0
  outer loop
   vertex 11.31068 -4.00000 1.47720
   vertex 11.31068 4.00000 1.47720
   vertex 11.31068 4.00000 1.87752
  endloop
 endfacet
 facet normal 1 0 0
  outer loop
   vertex 11.31068 -4.00000 1.47720
   vertex 11.31068 4.00000 1.87752
   vertex 11.31068 -4.00000 1.87752
  endloop
 endfacet
 facet normal -1 0 0
  outer loop
   vertex 10.93570 -4.00000 1.47720
   vertex 10.93570 -4.00000 1.87752
   vertex 10.93570 4.00000 1.87752
  endloop
 endfacet
 facet normal -1 0 0
  outer loop
   vertex 10.93570 -4.00000 1.47720
   vertex 10.93570 4.00000 1.87752
   vertex 10.93570 4.00000 1.47720
  endloop
 endfacet
 facet normal 0 0 -1
  outer loop
   vertex 11.82804 -4.00000 1.47720
   vertex 11.82804 4.00000 1.47720
   vertex 12.20302 4.00000 1.47720
  endloop
 endfacet
 facet normal 0 0 -1
  outer loop
   vertex 11.82804 -4.00000 1.47720
   vertex 12.20302 4.00000 1.47720
   vertex 12.20302 -4.00000 1.47720
  endloop
 endfacet
 facet normal 0 0 1
  outer loop
   vertex 11.82804 -4.00000 1.87752
   vertex 12.20302 -4.00000 1.87752
   vertex 12.20302 4.00000 1.87752
  endloop
 endfacet
 facet normal 0 0 1
  outer loop
   vertex 11.82804 -4.00000 1.87752
   vertex 12.20302 4.00000 1.87752
   vertex 11.82804 4.00000 1.87752
  endloop
 endfacet
 facet normal 0 -1 0
  outer loop
   vertex 11.82804 -4.00000 1.47720
   vertex 12.20302 -4.00000 1.47720
   vertex 12.20302 -4.00000 1.87752
  endloop
 endfacet
 facet normal 0 -1 0
  outer loop
   vertex 11.82804 -4.00000 1.47720
   vertex 12.20302 -4.00000 1.87752
   vertex 11.82804 -4.00000 1.87752
  endloop
 endfacet
 facet normal 0 1 0
  outer loop
   vertex 12.20302 4.00000 1.47720
   vertex 11.82804 4.00000 1.47720
   vertex 11.82804 4.00000 1.87752
  endloop
 endfacet
 facet normal 0 1 0
  outer loop
   vertex 12.20302 4.00000 1.47720
   vertex 11.82804 4.00000 1.87752
   vertex 12.20302 4.00000 1.87752
  endloop
 endfacet
 facet normal 1 0 0
  outer loop
   vertex 12.20302 -4.00000 1.47720
   vertex 12.20302 4.00000 1.47720
   vertex 12.20302 4.00000 1.87752
  endloop
 endfacet
 facet normal 1 0 0
  outer loop
   vertex 12.20302 -4.00000 1.47720
   vertex 12.20302 4.00000 1.87752
   vertex 12.20302 -4.00000 1.87752
  endloop
 endfacet
 facet normal -1 0 0
  outer loop
   vertex 11.82804 -4.00000 1.47720
   vertex 11.82804 -4.00000 1.87752
   vertex 11.82804 4.00000 1.87752
  endloop
 endfacet
 facet normal -1 0 0
  outer loop
   vertex 11.82804 -4.00000 1.47720
   vertex 11.82804 4.00000 1.87752
   vertex 11.82804 4.00000 1.47720
  endloop
 endfacet
 facet normal 0 0 -1
  outer loop
   vertex 12.72038 -4.00000 1.47720
   vertex 12.72038 4.00000 1.47720
   vertex 13.09536 4.00000 1.47720
  endloop
 endfacet
 facet normal 0 0 -1
  outer loop
   vertex 12.72038 -4.00000 1.47720
   vertex 13.09536 4.00000 1.47720
   vertex 13.09536 -4.00000 1.47720
  endloop
 endfacet
 facet normal 0 0 1
  outer loop
   vertex 12.72038 -4.00000 1.87752
   vertex 13.09536 -4.00000 1.87752
   vertex 13.09536 4.00000 1.87752
  endloop
 endfacet
 facet normal 0 0 1
  outer loop
   vertex 12.72038 -4.00000 1.87752
   vertex 13.09536 4.00000 1.87752
   vertex 12.72038 4.00000 1.87752
  endloop
 endfacet
 facet normal 0 -1 0
  outer loop
   vertex 12.72038 -4.00000 1.47720
   vertex 13.09536 -4.00000 1.47720
   vertex 13.09536 -4.00000 1.87752
  endloop
 endfacet
 facet normal 0 -1 0
  outer loop
   vertex 12.72038 -4.00000 1.47720
   vertex 13.09536 -4.00000 1.87752
   vertex 12.72038 -4.00000 1.87752
  endloop
 endfacet
 facet normal 0 1 0
  outer loop
   vertex 13.09536 4.00000 1.47720
   vertex 12.72038 4.00000 1.47720
   vertex 12.72038 4.00000 1.87752
  endloop
 endfacet
 facet normal 0 1 0
  outer loop
   vertex 13.09536 4.00000 1.47720
   vertex 12.72038 4.00000 1.87752
   vertex 13.09536 4.00000 1.87752
  endloop
 endfacet
 facet normal 1 0 0
  outer loop
   vertex 13.09536 -4.00000 1.47720
   vertex 13.09536 4.00000 1.47720
   vertex 13.09536 4.00000 1.87752
  endloop
 endfacet
 facet normal 1 0 0
  outer loop
   vertex 13.09536 -4.00000 1.47720
   vertex 13.09536 4.00000 1.87752
   vertex 13.09536 -4.00000 1.87752
  endloop
 endfacet
 facet normal -1 0 0
  outer loop
   vertex 12.72038 -4.00000 1.47720
   vertex 12.72038 -4.00000 1.87752
   vertex 12.72038 4.00000 1.87752
  endloop
 endfacet
 facet normal -1 0 0
  outer loop
   vertex 12.72038 -4.00000 1.47720
   vertex 12.72038 4.00000 1.87752
   vertex 12.72038 4.00000 1.47720
  endloop
 endfacet
endsolid pmma_waveguide
